<?xml version="1.0" encoding="UTF-8"?>
<svg width="146px" height="84px" viewBox="0 0 146 84" version="1.1" xmlns="http://www.w3.org/2000/svg" xmlns:xlink="http://www.w3.org/1999/xlink">
    <title>Combined Shape</title>
    <g id="Page-1" stroke="none" stroke-width="1" fill="none" fill-rule="evenodd" opacity="0.887834821">
        <g id="Weather" transform="translate(-86.000000, -333.000000)" fill="#FFFFFF">
            <g id="Group-2" transform="translate(82.369545, 323.860526)">
                <path d="M87.0171737,8.52619269 C104.365387,8.52619269 119.394987,17.7841116 126.735237,31.2912864 C128.400656,30.7943657 130.175699,30.5261927 132.017174,30.5261927 C141.682157,30.5261927 149.517174,37.9134943 149.517174,47.0261927 C149.517174,56.1388911 141.682157,63.5261927 132.017174,63.5261927 C131.053566,63.5261927 130.108148,63.4527609 129.186873,63.3115085 C123.247925,79.7158146 106.611484,91.5261927 87.0171737,91.5261927 C80.3155159,91.5261927 73.9598639,90.1446371 68.2598286,87.6702642 C65.2201745,90.0768284 61.2981908,91.5261927 57.0171737,91.5261927 C49.440319,91.5261927 42.9881178,86.986133 40.5537825,80.6338994 C37.4656514,81.852859 34.0748596,82.5261927 30.5171737,82.5261927 C16.1577703,82.5261927 4.51717375,71.5571691 4.51717375,58.0261927 C4.51717375,44.4952163 16.1577703,33.5261927 30.5171737,33.5261927 C35.7087819,33.5261927 40.5449966,34.9600271 44.6041714,37.430375 C50.3223788,20.6687126 67.1492501,8.52619269 87.0171737,8.52619269 Z" id="Combined-Shape" transform="translate(77.017174, 50.026193) rotate(7.000000) translate(-77.017174, -50.026193) "></path>
            </g>
        </g>
    </g>
</svg>