<?xml version="1.0" encoding="UTF-8"?>
<svg width="37px" height="37px" viewBox="0 0 37 37" version="1.1" xmlns="http://www.w3.org/2000/svg">
    <title>Shape</title>
    <g id="Page-2" stroke="none" stroke-width="1" fill="none" fill-rule="evenodd">
        <g id="A6" transform="translate(-114.000000, -199.000000)" fill="#65AED5" fill-rule="nonzero">
            <path d="M132.499625,206 C131.671418,206 131,205.216679 131,204.250438 L131,200.750438 C131,199.783321 131.672168,199 132.499625,199 C133.328582,199 134,199.783321 134,200.750438 L134,204.250438 C134,205.217554 133.329332,206 132.499625,206 Z M141.025391,226.024861 C141.611022,225.43923 142.639678,225.518358 143.322914,226.201594 L145.797788,228.676467 C146.481642,229.360322 146.560239,230.389508 145.975139,230.974609 C145.388978,231.56077 144.360322,231.481642 143.676467,230.797788 L141.201594,228.322914 C140.517739,227.639059 140.4387,226.611553 141.025391,226.024861 Z M119.025391,204.024861 C119.611022,203.43923 120.639678,203.518358 121.322914,204.201594 L123.797788,206.676467 C124.481642,207.360322 124.560239,208.389508 123.975139,208.974609 C123.388978,209.56077 122.360322,209.481642 121.676467,208.797788 L119.201594,206.322914 C118.517739,205.639059 118.4387,204.611553 119.025391,204.024861 Z M141.024861,208.974609 C140.43923,208.388978 140.518358,207.360322 141.201594,206.677086 L143.676467,204.202212 C144.360322,203.518358 145.389508,203.439761 145.974609,204.024861 C146.56077,204.611022 146.481642,205.639678 145.797788,206.323533 L143.322914,208.798406 C142.639059,209.482261 141.611553,209.5613 141.024861,208.974609 Z M119.024861,230.974609 C118.43923,230.388978 118.518358,229.360322 119.201594,228.677086 L121.676467,226.202212 C122.360322,225.518358 123.389508,225.439761 123.974609,226.024861 C124.56077,226.611022 124.481642,227.639678 123.797788,228.323533 L121.322914,230.798406 C120.639059,231.482261 119.611553,231.5613 119.024861,230.974609 Z M132.499625,236 C131.671418,236 131,235.216679 131,234.250438 L131,230.750438 C131,229.783321 131.672168,229 132.499625,229 C133.328582,229 134,229.783321 134,230.750438 L134,234.250438 C134,235.217554 133.329332,236 132.499625,236 Z M144,217.499625 C144,216.671418 144.783321,216 145.749562,216 L149.249562,216 C150.216679,216 151,216.672168 151,217.499625 C151,218.328582 150.216679,219 149.249562,219 L145.749562,219 C144.782446,219 144,218.329332 144,217.499625 Z M132.5,210 C136.642136,210 140,213.357864 140,217.5 C140,221.642136 136.642136,225 132.5,225 C128.357864,225 125,221.642136 125,217.5 C125,213.357864 128.357864,210 132.5,210 Z M119.249562,216 C120.216679,216 121,216.672168 121,217.499625 C121,218.328582 120.216679,219 119.249562,219 L115.749562,219 C114.782446,219 114,218.329332 114,217.499625 C114,216.671418 114.783321,216 115.749562,216 L119.249562,216 Z" id="Shape"></path>
        </g>
    </g>
</svg>