<?xml version="1.0" encoding="UTF-8"?>
<svg width="45px" height="47px" viewBox="0 0 45 47" version="1.1" xmlns="http://www.w3.org/2000/svg" xmlns:xlink="http://www.w3.org/1999/xlink">
    <title>Cloud-Drizzle-Sun-Alt</title>
    <g id="Page-1" stroke="none" stroke-width="1" fill="none" fill-rule="evenodd">
        <g id="Weather" transform="translate(-232.000000, -594.000000)">
            <g id="FORECAST" transform="translate(232.000000, 554.000000)">
                <g id="Sun" transform="translate(0.000000, 16.000000)">
                    <g id="Cloud-Drizzle-Sun-Alt" transform="translate(0.000000, 24.000000)" fill="#65AED5" fill-rule="nonzero">
                        <path d="M43.3153636,20.8687833 L40.0426364,20.8687833 C39.1393636,20.8687833 38.4062727,20.1677 38.4062727,19.3021167 C38.4062727,18.4373167 39.1393636,17.7370167 40.0426364,17.7370167 L43.3153636,17.7370167 C44.2186364,17.7370167 44.9509091,18.4381 44.9509091,19.3021167 C44.9509091,20.1684833 44.2194545,20.8687833 43.3153636,20.8687833 Z M36.8869091,10.44105 C36.2479091,11.0528333 35.2120909,11.0528333 34.5730909,10.44105 C33.9340909,9.83005 33.9340909,8.83756667 34.5730909,8.22656667 L36.8869091,6.0113 C37.5259091,5.39951667 38.5617273,5.39951667 39.2007273,6.0113 C39.8397273,6.6223 39.8397273,7.61478333 39.2007273,8.22656667 L36.8869091,10.44105 Z M34.4757273,22.6665333 L34.4757273,22.6665333 C35.9067273,24.3005667 36.7715455,26.4030333 36.7715455,28.7029 L36.7715455,28.7029 C36.7715455,32.7973833 34.0314545,36.2699 30.2146364,37.5584833 C30.1925455,36.51195 29.8595455,35.4748167 29.2148182,34.5763333 C31.7135455,33.6935167 33.498,31.3999167 33.498,28.7029 C33.498,25.2421333 30.5680909,22.4362333 26.9533636,22.4362333 C25.6434545,22.4362333 24.4309091,22.8138 23.4081818,23.4475167 C22.4001818,19.2833167 18.5203636,16.17035 13.8640909,16.17035 C8.44281818,16.17035 4.04754545,20.3784167 4.04754545,25.5695667 C4.04754545,26.6693667 4.25536364,27.7206 4.61781818,28.7029 L4.63009091,28.7029 C5.42781818,30.8492333 6.99872727,32.64385 9.04418182,33.7514833 L8.99672727,33.7961333 C8.19490909,34.5638 7.69090909,35.5069333 7.46509091,36.4947167 C4.39609091,34.8442333 2.10518182,32.0406833 1.20436364,28.7029 L1.20436364,28.7029 C0.934363636,27.69945 0.775636364,26.6529167 0.775636364,25.5695667 C0.775636364,18.6480333 6.63627273,13.0378 13.8649091,13.0378 C15.1510909,13.0378 16.3922727,13.2195333 17.5655455,13.5501 C19.3614545,11.3356167 22.1620909,9.90446667 25.3178182,9.90446667 C30.7399091,9.90446667 35.1351818,14.1125333 35.1351818,19.3029 C35.1343636,20.48965 34.8946364,21.6215667 34.4757273,22.6665333 Z M25.317,13.0378 C23.5071818,13.0378 21.8691818,13.7412333 20.6844545,14.8786333 C22.599,16.0035 24.1911818,17.5834833 25.29,19.4634833 C25.8332727,19.3749667 26.3839091,19.3029 26.9533636,19.3029 C28.6928182,19.3029 30.3226364,19.7407833 31.7397273,20.49905 L31.7397273,20.49905 C31.8182727,20.1120833 31.8616364,19.7125833 31.8616364,19.3029 C31.8616364,15.8429167 28.9317273,13.0378 25.317,13.0378 Z M25.317,6.77113333 C24.4137273,6.77113333 23.6814545,6.07005 23.6814545,5.20525 L23.6814545,2.0727 C23.6814545,1.20711667 24.4137273,0.506033333 25.317,0.506033333 C26.2202727,0.506033333 26.9533636,1.20711667 26.9533636,2.0727 L26.9533636,5.20525 C26.9533636,6.07005 26.2210909,6.77113333 25.317,6.77113333 Z M13.7487273,10.44105 L11.4349091,8.22656667 C10.7959091,7.61478333 10.7959091,6.6223 11.4349091,6.0113 C12.0730909,5.39951667 13.1097273,5.39951667 13.7487273,6.0113 L16.0625455,8.22656667 C16.7007273,8.83756667 16.7007273,9.83005 16.0625455,10.44105 C15.4235455,11.0528333 14.3869091,11.0528333 13.7487273,10.44105 Z M13.0459091,34.34995 L14.7812727,36.0114 C15.7401818,36.9294667 15.7401818,38.4162333 14.7812727,39.3343 C13.8231818,40.2523667 12.2694545,40.2523667 11.3105455,39.3343 C10.3524545,38.4162333 10.3524545,36.9294667 11.3105455,36.0114 L13.0459091,34.34995 Z M18.7723636,40.61505 L20.5077273,42.2765 C21.4666364,43.1945667 21.4666364,44.6829 20.5077273,45.5994 C19.5496364,46.5174667 17.9959091,46.5174667 17.037,45.5994 C16.0789091,44.6829 16.0789091,43.1945667 17.037,42.2765 L18.7723636,40.61505 Z M24.4988182,34.34995 L26.2341818,36.0114 C27.1930909,36.9294667 27.1930909,38.4162333 26.2341818,39.3343 C25.2760909,40.2523667 23.7223636,40.2523667 22.7642727,39.3343 C21.8053636,38.4162333 21.8053636,36.9294667 22.7642727,36.0114 L24.4988182,34.34995 Z" id="Shape"></path>
                    </g>
                    <text id="92" font-family="OpenSans-Regular, Open Sans" font-size="24" font-weight="normal" fill="#4A4A4A">
                        <tspan x="5.27734375" y="96">92</tspan>
                    </text>
                </g>
            </g>
        </g>
    </g>
</svg>