<?xml version="1.0" encoding="UTF-8"?>
<svg width="45px" height="40px" viewBox="0 0 45 40" version="1.1" xmlns="http://www.w3.org/2000/svg" xmlns:xlink="http://www.w3.org/1999/xlink">
    <title>Shape</title>
    <g id="Page-1" stroke="none" stroke-width="1" fill="none" fill-rule="evenodd">
        <g id="Weather" transform="translate(-274.000000, -212.000000)" fill="#65AED5" fill-rule="nonzero">
            <g id="TODAY" transform="translate(205.000000, 195.000000)">
                <g id="Cloud-Sun" transform="translate(69.775636, 17.527727)">
                    <path d="M42.5397273,21.2694545 L39.267,21.2694545 C38.3637273,21.2694545 37.6306364,20.5371818 37.6306364,19.6330909 C37.6306364,18.7298182 38.3637273,17.9983636 39.267,17.9983636 L42.5397273,17.9983636 C43.443,17.9983636 44.1760909,18.7306364 44.1760909,19.6330909 C44.1760909,20.5371818 43.443,21.2694545 42.5397273,21.2694545 Z M36.1112727,10.3778182 C35.4722727,11.0168182 34.4364545,11.0168182 33.7974545,10.3778182 C33.1584545,9.73963636 33.1584545,8.703 33.7974545,8.06481818 L36.1112727,5.751 C36.7502727,5.112 37.7860909,5.112 38.4250909,5.751 C39.0640909,6.38918182 39.0640909,7.42581818 38.4250909,8.06481818 L36.1112727,10.3778182 Z M33.7000909,23.1471818 L33.7000909,23.1471818 C35.1310909,24.8539091 35.9959091,27.0499091 35.9959091,29.4512727 C35.9959091,34.8717273 31.6006364,39.2678182 26.1785455,39.2678182 C23.9080909,39.2678182 15.705,39.2678182 13.0892727,39.2678182 C5.86063636,39.2678182 0,33.408 0,26.1785455 C0,18.9490909 5.86063636,13.0892727 13.0892727,13.0892727 C14.3754545,13.0892727 15.6174545,13.2790909 16.7899091,13.6243636 C18.5858182,11.3113636 21.3864545,9.81654545 24.5421818,9.81654545 C29.9642727,9.81654545 34.3595455,14.2126364 34.3595455,19.6330909 C34.3587273,20.8726364 34.119,22.0557273 33.7000909,23.1471818 Z M3.27190909,26.1785455 C3.27190909,31.6006364 7.66636364,35.9950909 13.0884545,35.9950909 C16.047,35.9950909 23.7076364,35.9950909 26.1777273,35.9950909 C29.7924545,35.9950909 32.7223636,33.0643636 32.7223636,29.4512727 C32.7223636,25.8365455 29.7924545,22.9058182 26.1777273,22.9058182 C24.8686364,22.9058182 23.6552727,23.3001818 22.6325455,23.9620909 C21.6253636,19.6126364 17.7447273,16.362 13.0884545,16.362 C7.66636364,16.362 3.27190909,20.7564545 3.27190909,26.1785455 Z M24.5413636,13.0892727 C22.7315455,13.0892727 21.0927273,13.824 19.9088182,15.0111818 C21.8233636,16.1860909 23.4147273,17.8363636 24.5143636,19.8008182 C25.0576364,19.7083636 25.6082727,19.6330909 26.1777273,19.6330909 C27.9163636,19.6330909 29.5478182,20.0904545 30.9640909,20.8824545 L30.9640909,20.8824545 C31.0426364,20.4782727 31.0868182,20.061 31.0868182,19.6330909 C31.0868182,16.02 28.1560909,13.0892727 24.5413636,13.0892727 Z M24.5413636,6.54381818 C23.6380909,6.54381818 22.9058182,5.81154545 22.9058182,4.90827273 L22.9058182,1.63636364 C22.9058182,0.732272727 23.6389091,0 24.5413636,0 C25.4454545,0 26.1777273,0.732272727 26.1777273,1.63636364 L26.1777273,4.90827273 C26.1777273,5.81236364 25.4462727,6.54381818 24.5413636,6.54381818 Z M12.9722727,10.3778182 L10.6592727,8.06481818 C10.0202727,7.42581818 10.0202727,6.38918182 10.6592727,5.751 C11.2974545,5.112 12.3340909,5.112 12.9722727,5.751 L15.2860909,8.06481818 C15.9250909,8.703 15.9250909,9.73963636 15.2860909,10.3778182 C14.6479091,11.0168182 13.6112727,11.0168182 12.9722727,10.3778182 Z" id="Shape"></path>
                </g>
            </g>
        </g>
    </g>
</svg>