<?xml version="1.0" encoding="UTF-8"?>
<svg width="38px" height="35px" viewBox="0 0 38 35" version="1.1" xmlns="http://www.w3.org/2000/svg" xmlns:xlink="http://www.w3.org/1999/xlink">
    <title>Cloud-Drizzle-Alt</title>
    <g id="Page-1" stroke="none" stroke-width="1" fill="none" fill-rule="evenodd">
        <g id="Weather" transform="translate(-752.000000, -603.000000)" fill="#65AED5" fill-rule="nonzero">
            <g id="FORECAST" transform="translate(232.000000, 554.000000)">
                <g id="Thu" transform="translate(520.000000, 16.000000)">
                    <g id="Cloud-Drizzle-Alt" transform="translate(0.000000, 33.000000)">
                        <path d="M27.8185333,6.87431818 C27.2308,6.87431818 26.6624889,6.9475 26.1017778,7.03738636 C23.7913778,3.14602273 19.3791556,0.512272727 14.3091111,0.512272727 C6.84844444,0.512272727 0.799688889,6.20931818 0.799688889,13.2371591 C0.799688889,18.0035227 3.58635556,22.1518182 7.70471111,24.3313636 C7.93777778,23.3275 8.45795556,22.3705682 9.28635556,21.5910227 L9.33448889,21.5456818 C6.25733333,19.90625 4.17831111,16.8023864 4.17831111,13.2371591 C4.17831111,7.96647727 8.71466667,3.69329545 14.3099556,3.69329545 C19.1156889,3.69329545 23.1200444,6.85443182 24.1604,11.0830682 C25.2159556,10.43875 26.4682667,10.0561364 27.8193778,10.0561364 C31.5501333,10.0561364 34.5740889,12.9046591 34.5740889,16.4189773 C34.5740889,19.1577273 32.7315111,21.4868182 30.1534222,22.3832955 C30.8188444,23.2948864 31.1616889,24.3488636 31.1853333,25.4115909 C35.1246667,24.1030682 37.9527111,20.5768182 37.9527111,16.4189773 C37.9510222,11.1475 33.4146667,6.87431818 27.8185333,6.87431818 Z M13.4646667,22.1534091 L11.6736,23.8405682 C10.6847556,24.7728409 10.6847556,26.2826136 11.6736,27.2148864 C12.6632889,28.1471591 14.2668889,28.1471591 15.2557333,27.2148864 C16.2454222,26.2826136 16.2454222,24.7728409 15.2557333,23.8405682 L13.4646667,22.1534091 Z M19.3757778,28.5154545 L17.5847111,30.2026136 C16.5950222,31.1348864 16.5950222,32.64625 17.5847111,33.5769318 C18.5735556,34.5092045 20.1771556,34.5092045 21.166,33.5769318 C22.1556889,32.64625 22.1556889,31.1348864 21.166,30.2026136 L19.3757778,28.5154545 Z M25.2860444,22.1534091 L23.4949778,23.8405682 C22.5052889,24.7728409 22.5052889,26.2826136 23.4949778,27.2148864 C24.4838222,28.1471591 26.0874222,28.1471591 27.0771111,27.2148864 C28.0659556,26.2826136 28.0659556,24.7728409 27.0771111,23.8405682 L25.2860444,22.1534091 Z" id="Shape"></path>
                    </g>
                </g>
            </g>
        </g>
    </g>
</svg>