<?xml version="1.0" encoding="UTF-8"?>
<svg width="36px" height="35px" viewBox="0 0 36 35" version="1.1" xmlns="http://www.w3.org/2000/svg" xmlns:xlink="http://www.w3.org/1999/xlink">
    <title>Cloud-Lightning</title>
    <g id="Page-1" stroke="none" stroke-width="1" fill="none" fill-rule="evenodd">
        <g id="Weather" transform="translate(-361.000000, -603.000000)" fill="#65AED5" fill-rule="nonzero">
            <g id="FORECAST" transform="translate(232.000000, 554.000000)">
                <g id="Mon" transform="translate(129.000000, 16.000000)">
                    <g id="Cloud-Lightning" transform="translate(0.000000, 33.000000)">
                        <path d="M26.181,25.3874444 C25.9519091,25.3874444 25.65,25.3874444 25.3120909,25.3874444 L28.2452727,21.9558889 C30.8479091,21.1337778 32.7264545,18.8035556 32.7264545,16.0541111 C32.7264545,12.6178889 29.7965455,9.83344444 26.1818182,9.83344444 C24.8719091,9.83344444 23.6593636,10.2067778 22.6366364,10.8367778 C21.6286364,6.70211111 17.7488182,3.61122222 13.0925455,3.61122222 C7.67127273,3.61122222 3.276,7.78944444 3.276,12.9445556 C3.276,17.1803333 6.24763636,20.7518889 10.3156364,21.8921111 L9.21190909,24.8297778 C3.87736364,23.2578889 0.00327272727,18.5313333 0.00327272727,12.9437778 C0.00327272727,6.07211111 5.86390909,0.500111111 13.0925455,0.500111111 C18.0049091,0.500111111 22.2799091,3.07611111 24.5184545,6.881 C25.0617273,6.79233333 25.6123636,6.72155556 26.1818182,6.72155556 C31.6039091,6.72155556 35.9991818,10.899 35.9991818,16.0533333 C35.9991818,21.2076667 31.6030909,25.3874444 26.181,25.3874444 Z M16.3644545,14.4985556 L24.5446364,14.4985556 L19.6363636,22.2763333 L25.3628182,22.2763333 L14.7280909,34.7192222 L17.6735455,25.3874444 L12.2735455,25.3874444 L16.3644545,14.4985556 Z" id="Shape"></path>
                    </g>
                </g>
            </g>
        </g>
    </g>
</svg>